<svg xmlns="http://www.w3.org/2000/svg" viewBox="0 0 1200 630" width="1200" height="630">
  <defs>
    <linearGradient id="bg" x1="0%" y1="0%" x2="100%" y2="100%">
      <stop offset="0%" style="stop-color:#0d1117"/>
      <stop offset="50%" style="stop-color:#1a1e33"/>
      <stop offset="100%" style="stop-color:#0d1117"/>
    </linearGradient>
    <linearGradient id="accent" x1="0%" y1="0%" x2="100%" y2="0%">
      <stop offset="0%" style="stop-color:#58a6ff"/>
      <stop offset="100%" style="stop-color:#39d2c0"/>
    </linearGradient>
    <linearGradient id="topbar" x1="0%" y1="0%" x2="100%" y2="0%">
      <stop offset="0%" style="stop-color:#58a6ff"/>
      <stop offset="100%" style="stop-color:#39d2c0"/>
    </linearGradient>
  </defs>

  <!-- Background -->
  <rect width="1200" height="630" fill="url(#bg)"/>

  <!-- Top accent bar -->
  <rect width="1200" height="4" fill="url(#topbar)"/>

  <!-- Subtle radial glow -->
  <circle cx="900" cy="315" r="300" fill="#58a6ff" opacity="0.03"/>

  <!-- Bird (scaled up from bird-logo.svg, positioned right) -->
  <g transform="translate(880, 140) scale(1.6)">
    <!-- Body -->
    <ellipse cx="100" cy="105" rx="38" ry="48" fill="#e8e8e8"/>
    <!-- Left wing -->
    <path d="M62 90 Q30 75 18 95 Q25 105 40 108 Q50 108 62 105 Z" fill="#58a6ff"/>
    <!-- Right wing -->
    <path d="M138 90 Q170 75 182 95 Q175 105 160 108 Q150 108 138 105 Z" fill="#58a6ff"/>
    <!-- Wing inner shade -->
    <path d="M62 95 Q38 85 25 98 Q32 105 45 107 Q52 106 62 103 Z" fill="#3d8bdb"/>
    <path d="M138 95 Q162 85 175 98 Q168 105 155 107 Q148 106 138 103 Z" fill="#3d8bdb"/>
    <!-- Head -->
    <circle cx="100" cy="68" r="22" fill="#f0f0f0"/>
    <!-- Eyes -->
    <circle cx="91" cy="63" r="6" fill="#0d1117"/>
    <circle cx="109" cy="63" r="6" fill="#0d1117"/>
    <circle cx="92" cy="61" r="2" fill="white"/>
    <circle cx="110" cy="61" r="2" fill="white"/>
    <!-- Beak -->
    <path d="M96 72 L100 82 L104 72 Z" fill="#39d2c0"/>
    <!-- Feet -->
    <line x1="90" y1="150" x2="85" y2="165" stroke="#484f58" stroke-width="3" stroke-linecap="round"/>
    <line x1="85" y1="165" x2="78" y2="168" stroke="#484f58" stroke-width="2" stroke-linecap="round"/>
    <line x1="85" y1="165" x2="85" y2="170" stroke="#484f58" stroke-width="2" stroke-linecap="round"/>
    <line x1="85" y1="165" x2="91" y2="168" stroke="#484f58" stroke-width="2" stroke-linecap="round"/>
    <line x1="110" y1="150" x2="115" y2="165" stroke="#484f58" stroke-width="3" stroke-linecap="round"/>
    <line x1="115" y1="165" x2="108" y2="168" stroke="#484f58" stroke-width="2" stroke-linecap="round"/>
    <line x1="115" y1="165" x2="115" y2="170" stroke="#484f58" stroke-width="2" stroke-linecap="round"/>
    <line x1="115" y1="165" x2="121" y2="168" stroke="#484f58" stroke-width="2" stroke-linecap="round"/>
  </g>

  <!-- Text content (left side) -->
  <!-- Tag -->
  <rect x="80" y="160" width="180" height="32" rx="16" fill="rgba(88,166,255,0.1)" stroke="rgba(88,166,255,0.2)" stroke-width="1"/>
  <text x="170" y="182" fill="#58a6ff" font-family="Inter,Helvetica,Arial,sans-serif" font-size="14" font-weight="600" text-anchor="middle" letter-spacing="1">LEARNING IN PUBLIC</text>

  <!-- Title -->
  <text x="80" y="260" fill="#e6edf3" font-family="Inter,Helvetica,Arial,sans-serif" font-size="56" font-weight="800" letter-spacing="-1">From Zero to</text>
  <text x="80" y="330" fill="url(#accent)" font-family="Inter,Helvetica,Arial,sans-serif" font-size="56" font-weight="800" letter-spacing="-1" font-style="italic">Options Trader</text>

  <!-- Subtitle -->
  <text x="80" y="385" fill="#8b949e" font-family="Inter,Helvetica,Arial,sans-serif" font-size="20">Every trade, every lesson, documented.</text>

  <!-- Bottom bar: site name -->
  <rect x="0" y="590" width="1200" height="40" fill="rgba(0,0,0,0.3)"/>
  <text x="80" y="616" fill="#58a6ff" font-family="Inter,Helvetica,Arial,sans-serif" font-size="18" font-weight="800">SaltWaterBRC</text>
  <text x="255" y="616" fill="#484f58" font-family="Inter,Helvetica,Arial,sans-serif" font-size="18" font-weight="400">/ options</text>
  <text x="1120" y="616" fill="#484f58" font-family="Inter,Helvetica,Arial,sans-serif" font-size="14" text-anchor="end">saltwaterbrc.net</text>
</svg>
